<svg width="17.416748" height="11.875000" viewBox="0 0 17.4167 11.875" fill="none" xmlns="http://www.w3.org/2000/svg" xmlns:xlink="http://www.w3.org/1999/xlink">
	<desc>
			Created with Pixso.
	</desc>
	<defs/>
	<path id="Vector" d="M8.7 3.56C9.33 3.56 9.94 3.81 10.38 4.25C10.83 4.7 11.08 5.3 11.08 5.93C11.08 6.56 10.83 7.17 10.38 7.61C9.94 8.06 9.33 8.31 8.7 8.31C8.07 8.31 7.47 8.06 7.02 7.61C6.58 7.17 6.33 6.56 6.33 5.93C6.33 5.3 6.58 4.7 7.02 4.25C7.47 3.81 8.07 3.56 8.7 3.56ZM8.7 0C12.66 0 16.04 2.46 17.41 5.93C16.04 9.41 12.66 11.87 8.7 11.87C4.75 11.87 1.36 9.41 0 5.93C1.36 2.46 4.75 0 8.7 0ZM1.72 5.93C2.36 7.24 3.35 8.34 4.59 9.11C5.82 9.88 7.25 10.29 8.7 10.29C10.16 10.29 11.58 9.88 12.82 9.11C14.05 8.34 15.05 7.24 15.69 5.93C15.05 4.63 14.05 3.53 12.82 2.76C11.58 1.99 10.16 1.58 8.7 1.58C7.25 1.58 5.82 1.99 4.59 2.76C3.35 3.53 2.36 4.63 1.72 5.93Z" fill="#FEFEFE" fill-opacity="1.000000" fill-rule="nonzero"/>
</svg>
