<svg width="17.000000" height="15.000000" viewBox="0 0 17 15" fill="none" xmlns="http://www.w3.org/2000/svg" xmlns:xlink="http://www.w3.org/1999/xlink">
	<desc>
			Created with Pixso.
	</desc>
	<defs/>
	<path id="Vector" d="M8.58 12.71L8.5 12.79L8.4 12.71C4.36 9.18 1.69 6.85 1.69 4.49C1.69 2.86 2.97 1.63 4.67 1.63C5.98 1.63 7.25 2.45 7.7 3.56L9.29 3.56C9.74 2.45 11.01 1.63 12.32 1.63C14.02 1.63 15.3 2.86 15.3 4.49C15.3 6.85 12.63 9.18 8.58 12.71ZM12.32 0C10.84 0 9.42 0.66 8.5 1.7C7.57 0.66 6.15 0 4.67 0C2.05 0 0 1.97 0 4.49C0 7.57 2.88 10.1 7.26 13.92L8.5 15L9.73 13.92C14.1 10.1 17 7.57 17 4.49C17 1.97 14.94 0 12.32 0Z" fill="#FFFFFF" fill-opacity="1.000000" fill-rule="nonzero"/>
</svg>
